<svg id="Layer_1" data-name="Layer 1" xmlns="http://www.w3.org/2000/svg" width="280" height="60" viewBox="0 0 280 60">
  <defs>
    <style>
      .cls-1 {
        fill: #8f8f8f;
      }
    </style>
  </defs>
  <title>ds-logo-</title>
  <g>
    <path class="cls-1" d="M61.2,15.5H72.7a8.4,8.4,0,0,1,5.1,1.4,5.7,5.7,0,0,1,2.1,4.7,4.3,4.3,0,0,1-2.8,4.5h0A5.7,5.7,0,0,1,81,31.9a7,7,0,0,1-2.6,5.7A9.1,9.1,0,0,1,73,39H61.2Zm10.4,9.1a1.9,1.9,0,0,0,2.1-2c0-1.4-.9-2-2.2-2h-4v4Zm.5,9.2a2.3,2.3,0,0,0,2.5-2.4A2.2,2.2,0,0,0,72.1,29H67.6v4.8Z"/>
    <path class="cls-1" d="M82,15.5h6.1V39H82Z"/>
    <path class="cls-1" d="M89.3,30.6c0-5.3,3.4-8.8,8.8-8.8s8.6,3.6,8.6,8.8-3.3,8.9-8.6,8.9S89.3,36,89.3,30.6Zm11.4,0c0-2.9-.9-4.7-2.8-4.7s-2.7,1.8-2.7,4.7.9,4.9,2.7,4.9S100.7,33.6,100.7,30.6Z"/>
    <path class="cls-1" d="M107.4,30.6c0-5.3,3.4-8.8,8.8-8.8s8.6,3.5,8.6,8.8-3.4,8.9-8.7,8.9S107.4,36,107.4,30.6Zm11.4,0c0-2.9-.9-4.7-2.8-4.7s-2.7,1.8-2.7,4.7.9,4.9,2.7,4.9S118.8,33.6,118.8,30.6Z"/>
    <path class="cls-1" d="M126,22.2h5.6v2.5h.1a5.5,5.5,0,0,1,5.1-3,4.5,4.5,0,0,1,4.5,2.9h.2a5.5,5.5,0,0,1,5.2-2.9c3.9,0,5.5,2.9,5.5,6.7V39h-5.8V29.5c0-1.7-.6-2.8-2.1-2.8s-2.2,1.3-2.2,3.1V39h-5.8V29.5c0-1.7-.6-2.8-2-2.8s-2.2,1.3-2.2,3.1V39H126Z"/>
    <path class="cls-1" d="M159.6,36.8h0V39h-5.7V15.5h5.9v8.4h.1a5.5,5.5,0,0,1,4.8-2.2c4.2,0,6.7,3.7,6.7,8.8s-2.7,9-7.1,9A5.2,5.2,0,0,1,159.6,36.8Zm5.7-6.3c0-2.7-1-4.5-2.7-4.5s-3,1.8-3,4.5,1.2,4.4,3,4.4S165.3,33.2,165.3,30.5Z"/>
    <path class="cls-1" d="M172,30.6c0-5.3,3.5-8.9,8.5-8.9a8.2,8.2,0,0,1,5.9,2.2c2,1.9,2.8,4.8,2.8,8.3H177.9c.3,2,1.2,3.1,3,3.1a2.2,2.2,0,0,0,2.3-1.5h5.7c-1,3.8-4,5.7-8.2,5.7S172,35.9,172,30.6Zm5.9-1.8h5.4c-.1-2-1.2-3.1-2.6-3.1S178.1,26.9,177.9,28.8Z"/>
    <path class="cls-1" d="M195.8,25.1h.1c1.3-2.3,2.9-3.3,4.9-3.3l1,.2v5.2h-.2c-3.5-.7-5.5,1-5.5,4.8v7h-5.9V22.2h5.6Z"/>
    <path class="cls-1" d="M202.4,39h5.7c.2.8.9,1.4,2.3,1.4s2.6-1.1,2.6-2.9V36.3h-.1a5,5,0,0,1-4.1,1.9c-3.6,0-6.7-2.7-6.7-8s2.5-8.5,6.4-8.5a5.1,5.1,0,0,1,4.6,2.3h.1V22.1h5.6V36.7a7.7,7.7,0,0,1-2.3,6,8.8,8.8,0,0,1-5.9,1.8C206,44.6,202.9,42.7,202.4,39Zm10.8-9c0-2.1-.9-3.8-2.6-3.8s-2.7,1.4-2.7,3.8,1,3.8,2.7,3.8S213.2,32.2,213.2,30Z"/>
  </g>
</svg>
