<svg id="Layer_1" data-name="Layer 1" xmlns="http://www.w3.org/2000/svg" width="280" height="60" viewBox="0 0 280 60">
  <defs>
    <style>
      .cls-1 {
        fill: #8f8f8f;
      }
    </style>
  </defs>
  <title>ds-logo-</title>
  <path class="cls-1" d="M55.6,24.4V34.7a6.3,6.3,0,0,0,2.9-3.5h.1c-.3,3.7-2.8,7.4-6.7,7.4S45,35.6,45,31s2.3-5.7,5.2-7.7l-1.3-.2a2.9,2.9,0,0,0-3.1,2.8h-.2v-.6c0-2.5,1.3-5.5,4.5-5.5s3.5,1.9,5.9,1.9a2.9,2.9,0,0,0,2.6-1.5h.1C58.6,22,58.1,23.9,55.6,24.4ZM57.1,35c-1.4,1.4-2.9,2.7-4.8,2.7-3.6,0-6.4-2.9-6.4-7,0-2.4,1-3.7,2.1-5.2h-.1a7.3,7.3,0,0,0-2.6,5.4c0,4.6,2.9,7.4,6.7,7.4A6,6,0,0,0,57.2,35Zm1.1-13.5a3.7,3.7,0,0,1-3.5,2c-2,0-3.9-1.4-5.5-1.4a3.3,3.3,0,0,0-2.9,1.8h0a3.5,3.5,0,0,1,2.6-1c2.2,0,3.6,1.3,5.8,1.3a3.4,3.4,0,0,0,3.6-2.7Zm-7.7,1.9a8.2,8.2,0,0,0-2.7,6.2,6,6,0,0,0,1.9,4.6l.8-.4V26.4l-.8.3v-.2l3.9-2.1Zm4.8,1.1H53.6v8.1l-3.7,2a5.3,5.3,0,0,0,2.9.9,5.1,5.1,0,0,0,2.5-.6V24.5Zm-4,1.4-.5.3v7.4l.5-.2Zm16,1v9.7c0,2.6-2.4,4.4-5,5h-.1a3.9,3.9,0,0,0,2.1-3.4V28.2l-1.5-1.4-.6.6v7.8l.8.8h0l-2.2,2.5-2.6-2.4h0l1-1.1V22.6l3-3.1h0V27l2.4-2.6,2.6,2.2.4-.5.3.2ZM59.5,36h0l.6-.6V22.2l-.6.6V35.1l-.9.9h0L60.8,38l.4-.4Zm5.7-8.3-1.8-1.5-.4.4L64.6,28V38a3.2,3.2,0,0,1-.4,1.8h0a2.5,2.5,0,0,0,1-2.2V27.7Zm6.5,4.8V34l2.7,2.1L76,34.4l.2.2-3.6,3.9-3.7-3-.5.6-.3-.2.7-.7v-7L74,24.4l2.8,4.4Zm-2,2.5V27.9l-.6.4v7l3.4,2.8.5-.5Zm2.1-8.6h-.1v5.7l2.5-1.8Zm.7-.5-.5.3,2.4,3.9.6-.3ZM94.9,38.5l-3.8-3.4-3,3.4-4-3.5V29.6h-.8a1.2,1.2,0,0,0-1.2.9H82a3.4,3.4,0,0,1-.1-1c0-.8.2-2.6,2.2-2.6V22.1c0-.9-1.1-1.3-1.1-2.5s1.5-3.2,4.3-4.2h.1a2.5,2.5,0,0,0-1.5,2.4c0,1.8,1.7,1.3,1.7,4.2v1.1l3.3-3.4,3.4,3.4,3.2-3.4,3.2,3.1V33.2ZM85,34.6V28.7H83.4a1.1,1.1,0,0,0-1.2,1h0a1.5,1.5,0,0,1,1.2-.5h1v5.7L88.1,38l.4-.5Zm0-12.8c0-1.1-1-1.5-1-2.3a4.2,4.2,0,0,1,1-2.6h-.1a3.8,3.8,0,0,0-1.6,2.7c0,1,1.1,1.4,1.1,2.3v5H85Zm5.9,2.8-2.2-2.1-1.1,1.2v9.8l2.6,2.1.7-.7Zm.8,9.9V24.2l-2.3-2.4-.5.5,2.3,2.1V34.8l3.7,3.3.5-.4Zm5.4-10.3-1.7-1.7-1,1.1v9.9l2.7,2.4h0Zm.9-.4-2-2-.4.5,1.9,1.8V35.7l.5-.6Zm11.9,14.7-2.7-2.4-2.3,2.4L102,35.9l-.4.4-.3-.2.5-.5V28.1l5.3-3.8,3,2.4.5-.6.2.2-.6.7v7.7l1.5,1.3.5-.5.2.2-2.5,2.8Zm-7.2-3.1V27.9l-.5.4v7.3l2.6,2.4.5-.4-2.6-2.2Zm4.5-7.3-2.3-1.8h0v8.1l1.8,1.7.5-.5Zm.9,7.5v-8l-2.4-1.9-.5.4,2.3,1.8v8l2.4,2.1.4-.4Zm9.9-6.2h2.8v5.9l-4.4,3.2a3.2,3.2,0,0,0-2.5-1.2,3.4,3.4,0,0,0-2.3,1h-.2l3.8-5.5h-2.3V27.6l4.6-3.2a2.8,2.8,0,0,0,1.7.7,3.1,3.1,0,0,0,2-.6h.1Zm-3.2,7.1a3.5,3.5,0,0,0-2,.7h0a3.2,3.2,0,0,1,1.3-.2,3.3,3.3,0,0,1,2.4,1.1l.6-.5a2.8,2.8,0,0,0-2.3-1.1Zm3-4.7h-1.5L113,36.5h0a4.2,4.2,0,0,1,2.6-1,2.8,2.8,0,0,1,2.2,1.1h0Zm-4,0V27.4l-.6.4v4.6h2.2l.5-.6Zm5.8-5.4a2.9,2.9,0,0,1-1.9.6,2.4,2.4,0,0,1-1.8-.8h0v4.1h1l2.7-3.9Zm-1.4-.3a1.8,1.8,0,0,1-1.5-.8l-.7.5a2.1,2.1,0,0,0,1.8.9,2.9,2.9,0,0,0,2-.8h0A4.4,4.4,0,0,1,118.2,26.1Zm.5,4.8h-1.8l-.4.6h1.6v5.4l.6-.4Zm11.7-4v9.7c0,2.6-2.3,4.4-5,5h0a3.8,3.8,0,0,0,2-3.4V28.2l-1.5-1.4-.6.6v7.8l.9.8h0l-2.3,2.5-2.6-2.4h0l1-1.1V22.6l3-3.1h0V27l2.4-2.6,2.6,2.2.5-.5.2.2ZM122.6,36h0l.6-.6V22.2l-.6.6V35.1l-.9.9h0l2.2,1.9.4-.4Zm5.7-8.3-1.8-1.5-.4.4,1.6,1.4V38a3.2,3.2,0,0,1-.4,1.8h.1a2.4,2.4,0,0,0,.9-2.2V27.7Zm7.2,10.8-2.4-2.2-.6.5-.2-.2.6-.7v-8l-1.1-1.1-.5.5-.2-.2,2.5-2.8,2.2,2,.6-.6.2.2-.6.8v8.1l1.3,1.2.6-.6.2.2-2.6,2.9Zm-1.7-2.8V27.4l-1.4-1.3-.4.5,1.3,1.1V36l2.2,2,.4-.4Zm.9-11.6L132.4,22l2.1-2.2,2.3,2.1Zm-1.4-2.5-.5.4,1.8,1.7.5-.5Zm13.9,16.9-2.4-2.2V28.1l-1.5-1.3-.7.8v7.5l.8.9h0l-2.2,2.4-2.6-2.4h0l1-1V27.9l-1.3-1.2-.6.6-.2-.2,2.5-2.7,2.6,2.2v.6l2.6-2.8,2.5,2.2.5-.6.3.2-.7.7v8l1.3,1.1.6-.6.2.2-2.7,2.9ZM139.9,36h0l.6-.6V27.5l-1.6-1.4-.4.4,1.4,1.3v7.3l-.9.9h0l2.2,1.9.4-.5L139.9,36Zm5.8-.2V27.7L144,26.1l-.5.5,1.6,1.4v8.1l2.1,1.9.5-.4-2-1.8Zm9.4,7.7c-.9-1-1.6-1.5-2.4-1.5a7,7,0,0,0-3.1,1h-.1l3.9-4.4-2.8-2.2-.5.5h-.2l.6-.7V28.1l5.3-3.8,2.9,2.4.5-.6.3.2-.6.7v9.5c0,1.4.8,1.4.8,2.5S157.9,41.4,155.1,43.5Zm-3.7-7.7V27.9l-.6.4V36l2.8,2.2.4-.5Zm1.9,5.5a4.6,4.6,0,0,0-2.5.8h0a4.8,4.8,0,0,1,2-.5,3.1,3.1,0,0,1,2.3,1.3l.6-.4a3.4,3.4,0,0,0-2.4-1.3Zm3.4-2.6c-.7-.5-.8-1-.8-2.2V36l-4.6,5.4h0a5.6,5.6,0,0,1,3-.9,3.7,3.7,0,0,1,2.7,1.2,2.2,2.2,0,0,0,.9-1.6c0-.6-.5-1-1.2-1.4Zm-.8-10.6-2.3-1.9h-.1v8.5l1.8,1.4.6-.6Zm1.7,10.2c-.8-.6-.8-1.1-.8-2.3V27.6l-2.4-1.9-.5.4,2.3,1.8v8.5c0,1.2,0,1.6.8,2.1s1.2.9,1.2,1.5v.5h0a1.5,1.5,0,0,0,.3-.7A1.8,1.8,0,0,0,157.6,38.3Zm6.6.2-2.5-2-.5.5-.3-.2.6-.7V26.4h-1.6l.9-1.5h.7V23l3-3.1h0v4.9h2.3l-.9,1.4h-1.4v8.4l1.6,1.2.6-.6.2.2Zm-1.8-15.9-.5.6v1.7h.5Zm0,13.3V26.4h-.5v9.8l2.3,1.8.4-.4-2.2-1.7ZM176,27.2V35l-4.7,3.5-3.6-2.7-.4.5-.2-.2.5-.6V27.9l4.9-3.5,3.3,2.5.5-.5.3.2-.6.6Zm-7.5,8V27.6l-.6.5v7.4l3.4,2.6.5-.4-3.3-2.5Zm4.5-7.1-2.4-1.8h0v8.3l2.4,1.8V28.1Zm.9-.5-2.6-2-.5.4,2.5,2v8.6l.6-.4V27.6Zm12.7,10.9-2.4-2.2V28.1l-1.5-1.3-.8.8v7.5l.9.9h0l-2.3,2.4-2.6-2.4h0l1-1V27.9l-1.3-1.2-.5.6-.2-.2,2.5-2.7,2.5,2.2v.6l2.7-2.8,2.5,2.2.5-.6.3.2-.7.7v8l1.2,1.1.7-.6.2.2ZM179.3,36h0l.5-.6V27.5l-1.6-1.4-.4.4,1.4,1.3v7.3l-.8.9h0l2.1,1.9.5-.5L179.3,36Zm5.8-.2V27.7l-1.7-1.6-.5.5,1.6,1.4v8.1l2.1,1.9.4-.4Zm18.7,2.7c-.8-.9-1.1-1.2-2-1.4v5.4h0l-1.1-1-3.3,3h0V37a6.9,6.9,0,0,0-3,1.8h-.1a4.7,4.7,0,0,1,3.1-4.3V29h-.6a1.8,1.8,0,0,0-1.7,1.1h0a2.9,2.9,0,0,1-.2-1.2,2.3,2.3,0,0,1,2.3-2.4h.2v-3l-1.2-1.1-.5.6-.2-.2,2.8-3,2.6,2.4v2.5l.6-.6V20.9h.3v2.9l3.7-4,3.2,2.9V34.8l-4.9,3.7ZM197.4,36a3.4,3.4,0,0,0-2.5,1.8h0a4.9,4.9,0,0,1,2.5-1.2V36Zm.9-8h-1.6c-1,0-1.4.7-1.5,1.5h.1a1.2,1.2,0,0,1,1.3-.8h1.1V43.8l.6-.5Zm0-5-1.4-1.3-.5.5,1.3,1.1v3.2h.6V23Zm3.2,1.6-.6.6V41.4l.6.5Zm3.7-.6-1.7-1.5-1.7,1.8v9.8a4.1,4.1,0,0,1,3.3,1.5h.1Zm-3.4,12v.7a3.1,3.1,0,0,1,2,1.3l.7-.5a4,4,0,0,0-2.7-1.5Zm4.3-12.5-1.9-1.7-.5.4,1.8,1.7V36.8l.6-.5Zm12.3,3.7V35l-4.7,3.5-3.6-2.7-.4.5-.2-.2.5-.6V27.9l4.9-3.5,3.3,2.5.5-.5.3.2Zm-7.5,8V27.6l-.6.5v7.4l3.3,2.6.6-.4-3.3-2.5Zm4.5-7.1L213,26.3h0v8.3l2.4,1.8V28.1Zm.9-.5-2.6-2-.6.4,2.6,2v8.6l.6-.4V27.6Zm8.5,1.8h2.9v5.9l-4.4,3.2a3.2,3.2,0,0,0-2.5-1.2,3.8,3.8,0,0,0-2.4,1h-.1l3.8-5.5h-2.4V27.6l4.7-3.2a2.6,2.6,0,0,0,1.7.7,3.5,3.5,0,0,0,2-.6h.1l-3.4,4.9Zm-3.1,7.1a3.5,3.5,0,0,0-2,.7h0A3.2,3.2,0,0,1,221,37a3,3,0,0,1,2.3,1.1l.7-.5A3,3,0,0,0,221.7,36.5Zm3-4.7h-1.6l-3.2,4.7h0a4.2,4.2,0,0,1,2.5-1,3,3,0,0,1,2.3,1.1h0V31.8Zm-4.1,0V27.4l-.6.4v4.6h2.3l.4-.6Zm5.8-5.4a2.4,2.4,0,0,1-1.8.6,2.3,2.3,0,0,1-1.8-.8h-.1v4.1h1.1l2.7-3.9Zm-1.3-.3a1.8,1.8,0,0,1-1.5-.8l-.7.5a2.1,2.1,0,0,0,1.8.9,2.5,2.5,0,0,0,1.9-.8h.1a4.4,4.4,0,0,1-1.6.2Zm.5,4.8h-1.8l-.4.6H225v5.4l.6-.4V30.9Zm6.7,7.6-2.5-2-.6.5-.2-.2.6-.7V26.4h-1.7l1-1.5h.7V23l3-3.1h0v4.9h2.3l-1,1.4h-1.3v8.4l1.6,1.2.5-.6.3.2-2.7,2.9Zm-1.8-15.9-.6.6v1.7h.6Zm0,13.3V26.4h-.6v9.8l2.4,1.8.4-.4-2.2-1.7Z"/>
</svg>
