<svg id="Layer_1" data-name="Layer 1" xmlns="http://www.w3.org/2000/svg" width="280" height="60" viewBox="0 0 280 60">
  <defs>
    <style>
      .cls-1 {
        fill: #8f8f8f;
      }
    </style>
  </defs>
  <title>ds-logo-</title>
  <path class="cls-1" d="M119.6,15.5c-4.4,0-7.3,2.3-7.7,5.7l-.3,2.4h56.9a7.3,7.3,0,0,0,.2-1.5c.5-3.5-1-6.6-6.4-6.6H119.6Zm-34.8,0-1,8.1h25.8l1-8.1Zm86.7,0-1,8.1h28a6.9,6.9,0,0,0,.2-1.2c.7-5.4-2.8-6.9-6.1-6.9Zm-1.4,11.2-2.2,17.8h9.7l2.2-17.8Zm18.4,0-2.2,17.8H196l2.1-17.8Zm-105.1,0L81.2,44.5h25.9l.9-7.7H91.8l.4-3.3h16.2l.8-6.8Zm27.8,0c-.7,4.7,1.6,6.8,4.9,6.8h13.1l-.4,3.3H110l-1,7.7h21.3c.7,0,5.5-.2,7.1-4.1a45.6,45.6,0,0,0,1.1-6.8c.8-5.5-3-6.9-6.1-6.9Zm30.1,0-2.2,17.8h9.7l1.3-11h12.1c3.5,0,5.3-1.9,5.7-4.4l.3-2.4Z"/>
</svg>
