<svg id="Layer_1" data-name="Layer 1" xmlns="http://www.w3.org/2000/svg" width="280" height="60" viewBox="0 0 280 60">
  <defs>
    <style>
      .cls-1 {
        fill: #8f8f8f;
      }
    </style>
  </defs>
  <title>ds-logo-</title>
  <path class="cls-1" d="M46.1,18.5c0-2.4-2.2-3-4-3v.3c1,0,1.9.4,1.9,1.2s-.4,1.2-1.5,1.2a14.1,14.1,0,0,1-3.9-.9,13.1,13.1,0,0,0-4.2-1.1A3.9,3.9,0,0,0,30.3,20a2.9,2.9,0,0,0,1.8,2.7v-.3a1.4,1.4,0,0,1-.6-1.2,1.6,1.6,0,0,1,1.7-1.3A17.3,17.3,0,0,1,37.7,21c1.7.5,3.5.8,4.5,1v3.7l-1.8,1.5v.2l1.8,1.5v5.2a5.7,5.7,0,0,1-3,.7,6,6,0,0,1-4.7-1.9l4.9-2.4V22.2l-6,2.6a6.3,6.3,0,0,1,3.1-3.3v-.4c-3.6,1-6.8,4.3-6.8,8.4A8.4,8.4,0,0,0,38,37.9a7.8,7.8,0,0,0,7.9-7.8h-.2a7.8,7.8,0,0,1-3.2,3.7V28.9l2-1.5v-.2l-2-1.5V22A3.4,3.4,0,0,0,46.1,18.5ZM35.7,31.7l-1.4.7a6.8,6.8,0,0,1-1.4-4.6,6.9,6.9,0,0,1,.3-2.5l2.5-1.1Zm12.7,2.7-1.5,1.2.2.3.7-.6,2.7,2.4,3.6-2.4-.2-.3-.9.6-1.2-1.2V26.3l.9-.7,2.1,1.6v7.4c0,4.5-1,5.2-3,6v.3c3.3.1,6.5-.9,6.5-6.8V26.2l1-.9-.2-.2-1,.7-3-2.5-3.3,2.5V16h-.3l-4.2,2.8v.3a1.7,1.7,0,0,1,1.2,1.8Zm22-1.3-3,2.3-3-2.4V31.6L70,27.7h0l-2.9-4.3-6.2,3.3v8l-1.2.9.2.3,1.1-.9,4.1,3,5.4-4.3Zm-6-2V25.2h.2l2.7,4.2ZM93.3,17.4a2.3,2.3,0,0,0-.3-1.1h-.2c-.4,1-.8,1.5-2,1.5a3.2,3.2,0,0,1-2.3-1.1L85,20.6l.2.3,1.2-1.1a4.6,4.6,0,0,0,3,1.2V31l-7-12.2a3.9,3.9,0,0,0-3.2-2.2c-1.9,0-3.6,1.6-3.3,4.3h.3c.2-.7.5-1.6,1.4-1.6a2,2,0,0,1,1.5,1.2v4c-2.1,0-3.6.9-3.6,2.7A2.8,2.8,0,0,0,77.4,30v-.2a1.4,1.4,0,0,1-.3-.9,1.2,1.2,0,0,1,1.3-1.1H79v5.1c-2.5,0-4.6,1.4-4.6,3.8s2,3.4,4.1,3.3v-.3c-1.3-.1-1.9-.7-1.9-1.5a1.5,1.5,0,0,1,1.7-1.6,3.4,3.4,0,0,1,2.4,1.3l3.5-3.8-.3-.3-.8,1A5.7,5.7,0,0,0,79.5,33V21l9.6,16.8h.7V21A3.7,3.7,0,0,0,93.3,17.4ZM102,33.1l-3,2.3L96,33V31.6l5.7-3.9h0l-2.9-4.3-6.2,3.3v8l-1.2.9.2.3,1.1-.9,4.1,3,5.4-4.3Zm-6-2V25.2h.3l2.6,4.2Zm25.6-6.5-.9.6-2.2-1.9-2.7,2.4,1.1,1.1v9L114,34V26.5l1-.6-2.8-2.6-2.6,2.4,1.1,1.1v8.6l-.4.2-2.5-1.8V26.6c0-1.6-.8-2.1-1.8-2.7s-1.3-1-1.3-1.8.7-1.1,1.1-1.3v-.3c-1,0-3.5,1-3.5,3.3a2.7,2.7,0,0,0,1.2,2.2,2.9,2.9,0,0,1,1.2,2.2v7l-1.3.9.2.3,1.2-1,2.8,2.4,3-2,3.3,2,6.4-3.7V26l1.5-1.2-.2-.2ZM143.9,18l-1.2,1.1-2.6-2.4-4,2.9V16.9h-.4l.2,19.5-2.3-.5-.3-16.2a2.8,2.8,0,0,0-3-2.9,3.5,3.5,0,0,0-3.6,3.4h.4c.1-.8.5-1.4,1.2-1.4s1.3.5,1.3,2.1v4.7c-2.1.1-3.5,1.3-3.5,2.8a2.1,2.1,0,0,0,2,2.4v-.2a.9.9,0,0,1-.6-.8c0-.8.6-1,1.5-1h.5v7.4a3.4,3.4,0,0,0-2.5,3.4c0,2,1.5,3.5,3.9,3.5a21.4,21.4,0,0,0,4.6-.6,19.7,19.7,0,0,1,3.5-.6c.9,0,1.3.5,1.3,1.1a1.2,1.2,0,0,1-.8,1.3v.2a3.3,3.3,0,0,0,3.1-3.3c0-1.8-1.8-2.9-3.7-2.9a29.5,29.5,0,0,0-4.5.6l-3.8.6c-.9,0-1.8-.4-1.8-1.6s.8-1.8,2.9-1.8a13,13,0,0,1,3.7.5,14.6,14.6,0,0,0,3.9.7c1.8,0,3.4-.6,3.4-3.1V19.4l1.4-1.2-.2-.2ZM139,25.3a2.1,2.1,0,0,1-1.5.7,1.6,1.6,0,0,1-1.4-.7V20l1.2-.8,1.7,1.6Zm0,3.6a3,3,0,0,0-1.5-.6,2.3,2.3,0,0,0-1.4.6V25.8a2.3,2.3,0,0,0,1.4.6,3,3,0,0,0,1.5-.6Zm0,5.7a1.8,1.8,0,0,1-1.9,1.9h-1V29.4a2.3,2.3,0,0,1,1.4-.6,3.4,3.4,0,0,1,1.5.6ZM155.4,26l-3.8-2.7-5.9,3.3v7.8l-1.2,1v.2l1-.7,3.8,2.9,6-3.6Zm-6.5,7.6V25l3,2.1v8.5Zm17.9-10.1h-.2a2.1,2.1,0,0,1-1.1.5,1.5,1.5,0,0,1-1.3-.6h-.3l-2,2.3-2-2.3-3.6,2.4V26l.9-.6,1.2,1.4v7.5L157,35.5l.2.3.7-.6,2.9,2.4,3.7-2.6v-.2l-1.1.6-1.4-1.2V25.8A3.3,3.3,0,0,0,164,27c1.7.1,2.7-1.6,2.8-3.5ZM181.2,35l-4.1,2.8-5.5-8.4,4-6.1h.2a2.9,2.9,0,0,0,2,.9,2,2,0,0,0,1.8-.9h.3c-.1,2.4-1.8,3.8-3,3.8a5.2,5.2,0,0,1-2.5-.9l-.4.6,6,8.8,1.2-.7ZM168,34.4l-1.6,1.2.3.3.7-.6,2.6,2.4,3.6-2.4-.2-.3-1,.6-1.2-1.2V16h-.1l-4.3,2.8v.3c.5.2,1.2.3,1.2,1.8Zm33.1-15.9c0-2.4-2.3-3-4.1-3v.3c1.1,0,2,.4,2,1.2s-.4,1.2-1.5,1.2a14.1,14.1,0,0,1-3.9-.9,15.7,15.7,0,0,0-4.2-1,4,4,0,0,0-4.1,3.9,2.6,2.6,0,0,0,1.8,2.6v-.2a1.3,1.3,0,0,1-.7-1.2,1.6,1.6,0,0,1,1.7-1.4,18.4,18.4,0,0,1,4.4,1.1,31.3,31.3,0,0,0,4.4,1v3.7l-1.8,1.6h0L197,29v5.2a5.3,5.3,0,0,1-3,.7,5.8,5.8,0,0,1-4.6-1.9l4.9-2.4V22.2l-6,2.6a7.9,7.9,0,0,1,3.1-3.4v-.3c-3.6,1-6.9,4.2-6.9,8.3a8.4,8.4,0,0,0,8.4,8.4,7.9,7.9,0,0,0,8-7.8h-.3a7.7,7.7,0,0,1-3.1,3.7V28.8l1.9-1.6h0l-1.8-1.5V22A3.4,3.4,0,0,0,201.1,18.5ZM190.7,31.7l-1.5.7a7.4,7.4,0,0,1-1.3-4.6,6.9,6.9,0,0,1,.4-2.5l2.5-1.1Zm14.6-14.4h-.1l-2.4,2h0l2,2.3h.3l2.4-2h0l-2.2-2.3ZM208.9,35l-1,.6-1.2-1.2V26.2l1.2-.9-.2-.2-.8.7-2.2-2.5-3.5,2.4.3.3.8-.6,1.1,1.4v7.8l-1.6,1.2.2.2.8-.6,2.6,2.4,3.6-2.4V35Zm20-.1-.8.6-1.3-1.2V26.2l1.2-1-.3-.2-.9.8L224,23.3l-3.6,2.5-2.7-2.5-3.4,2.5-2.2-2.5-3.4,2.4V26l.8-.6,1.2,1.4v7.8l-.9.9,2.7,2.3,2.7-2.4-1.1-1.1V26.2l1.1-.8,1.8,1.7v7.2l-1,1,2.8,2.3,2.6-2.4-1.1-1.1V26.2l1-.6,1.9,1.6v7.2l-.8.9,2.7,2.5,3.7-2.5v-.4Zm10.5-1.8-3,2.3-3-2.4V31.6l5.6-3.9h0l-2.9-4.3-6.2,3.3v8.2l4.2,3,5.4-4.3Zm-6-2V25.2h.2l2.7,4.2ZM250.3,30,248,28.2a5.8,5.8,0,0,0,2.2-4.3v-.7h-.3a1.6,1.6,0,0,1-1.6,1.2,2.7,2.7,0,0,1-2.2-1.2l-5.4,3v4.3l2,1.5c-2,1.8-2.4,3-2.4,4a2.4,2.4,0,0,0,1.6,2.4v-.2c-.2-.3-.5-.4-.5-1s.5-1,1.5-1a3.6,3.6,0,0,1,2.3,1.2l5.1-3.1V30ZM249,26.4a15.6,15.6,0,0,1-3.7,3.6l-1.4-1.1V24.7a3.6,3.6,0,0,0,3.2,2.2A3,3,0,0,0,249,26.4ZM246.9,36a4,4,0,0,0-3.4-2.3,4.1,4.1,0,0,0-2.3.6,13.4,13.4,0,0,1,4.2-3.8l1.4,1.2V36Z"/>
</svg>
