<svg id="Layer_1" data-name="Layer 1" xmlns="http://www.w3.org/2000/svg" width="39.9" height="50" viewBox="0 0 39.9 50">
  <defs>
    <style>
      .cls-1 {
        fill: #fff;
        fill-rule: evenodd;
      }
    </style>
  </defs>
  <title>popular-white</title>
  <path class="cls-1" d="M26.3,48.6h0a15.8,15.8,0,0,0,4.7-7h0c.1-.3-.1-.6-.3-.6h-.1a26,26,0,0,0-6.8,1h0a.5.5,0,0,1-.7-.3v-.4h0a19.9,19.9,0,0,0,1-7.3c0-5.3-3.2-9.4-4.4-10.8h0a.5.5,0,0,0-.7-.1l-.2.2C17.3,28.1,11,35,11,42c0,4.2,2.8,6,3,6.9s-.2,1.2-1,1C7.9,48.3,0,41,0,32,0,15.5,16,12.3,16,4h0a6.3,6.3,0,0,0-1-3h0a.9.9,0,0,1,.5-1h.4c5.1,1.4,17,8.6,17,23h0a25.6,25.6,0,0,1-2,9s3.4-.6,7.9-1h0a1,1,0,0,1,1.1,1v.2c0,6.9-5.4,14.9-13.1,17.8-.6.2-1.1-.9-.5-1.4Z"/>
</svg>
