<svg id="Layer_1" data-name="Layer 1" xmlns="http://www.w3.org/2000/svg" width="48" height="48" viewBox="0 0 48 48">
  <defs>
    <style>
      .cls-1 {
        fill: #e0e0e0;
        fill-rule: evenodd;
      }
    </style>
  </defs>
  <title>search-grey</title>
  <g id="Layer_1-2" data-name="Layer 1-2">
    <path class="cls-1" d="M47.5,43.3a1.5,1.5,0,0,1,.1,2.1h-.1l-2.1,2.1a1.5,1.5,0,0,1-2.1.1h0L33.1,37.3a1.4,1.4,0,0,0-1.8-.2A21.2,21.2,0,0,1,20,40C7.8,40,0,32.1,0,20S7.8,0,20,0,40,7.8,40,20a21.4,21.4,0,0,1-2.9,11.3,1.4,1.4,0,0,0,.2,1.8ZM20,6C11.1,6,6,11.1,6,20s5.1,14,14,14,14-5.1,14-14S28.9,6,20,6Z"/>
  </g>
</svg>
