<svg id="Layer_1" data-name="Layer 1" xmlns="http://www.w3.org/2000/svg" width="46" height="52" viewBox="0 0 46 52">
  <defs>
    <style>
      .cls-1 {
        fill: #fff;
        fill-rule: evenodd;
      }
    </style>
  </defs>
  <title>topics-and-tags-white</title>
  <path class="cls-1" d="M46,17.2V48.6h0A3.4,3.4,0,0,1,42.6,52H3.5A3.4,3.4,0,0,1,0,48.6H0V17.2H0a3.5,3.5,0,0,1,3.4-3.5H42.5A3.5,3.5,0,0,1,46,17.2ZM8.1,4.6h0A1.2,1.2,0,0,1,6.9,3.4h0A3.4,3.4,0,0,1,10.3,0H35.7a3.4,3.4,0,0,1,3.4,3.4h0A1.1,1.1,0,0,1,38,4.6H8.1Zm34.4,5.7h0a1.1,1.1,0,0,1-1.1,1.1H4.6a1.1,1.1,0,0,1-1.1-1.1h0A3.4,3.4,0,0,1,6.9,6.9H39.1a3.4,3.4,0,0,1,3.4,3.4Z" transform="translate(0 0)"/>
</svg>
