<svg id="Layer_1" data-name="Layer 1" xmlns="http://www.w3.org/2000/svg" width="47.8" height="38" viewBox="0 0 47.8 38">
  <defs>
    <style>
      .cls-1 {
        fill: #fff;
        fill-rule: evenodd;
      }
    </style>
  </defs>
  <title>volume-white</title>
  <path class="cls-1" d="M36.5,37.3h0a2,2,0,0,1,.1-2.8h0A20,20,0,0,0,39.3,6.2a17.2,17.2,0,0,0-2.7-2.7h0A2,2,0,0,1,36.4.7h0A2,2,0,0,1,39.2.5h0a24,24,0,0,1,3,33.9,21.3,21.3,0,0,1-3,3h0a1.8,1.8,0,0,1-2.7-.1ZM32,32.7h0a2,2,0,0,1-2.7-.7h0a2,2,0,0,1,.6-2.7H30a11.8,11.8,0,0,0,4.5-16.1A12.1,12.1,0,0,0,30,8.7h0A2,2,0,0,1,29.2,6h0A2.2,2.2,0,0,1,32,5.2h0a15.8,15.8,0,0,1,5.9,21.6A15.2,15.2,0,0,1,32,32.7ZM0,13H0a2.9,2.9,0,0,1,3-3H8.5a3.6,3.6,0,0,0,2.8-1.2L19.6.6h0a1.9,1.9,0,0,1,2.8,0A2,2,0,0,1,23,2V36h0a2,2,0,0,1-2,2,2,2,0,0,1-1.4-.6l-8.2-8.2h0A4,4,0,0,0,8.5,28H3a2.9,2.9,0,0,1-3-3Z" transform="translate(0 0)"/>
</svg>
